<?xml version="1.0" encoding="utf-8"?>
<!-- Generator: Adobe Illustrator 25.2.0, SVG Export Plug-In . SVG Version: 6.00 Build 0)  -->
<svg version="1.1" id="Layer_1" xmlns="http://www.w3.org/2000/svg" xmlns:xlink="http://www.w3.org/1999/xlink" x="0px" y="0px"
	 viewBox="0 0 48 48" style="enable-background:new 0 0 48 48;" xml:space="preserve">
<style type="text/css">
	.st0{fill:#1DDECB;}
</style>
<path class="st0" d="M43.6,0H4.4C2,0,0,2,0,4.4v39.2C0,46,2,48,4.4,48h39.2c2.4,0,4.4-2,4.4-4.4V4.4C48,2,46,0,43.6,0z M14,40H6V18
	h8V40z M10,15.4c-2.4,0-4-1.6-4-3.6C6,9.6,7.6,8,10,8s4,1.6,4,3.6C14,13.8,12.4,15.4,10,15.4z M42,40h-8V28c0-3.2-2.2-4-2.8-4
	c-0.6,0-3.2,0.4-3.2,4c0,0.4,0,12,0,12h-8V18h8v3.2c1.2-1.8,3.2-3.2,7-3.2s7,3,7,10V40z"/>
</svg>
