<?xml version="1.0" encoding="utf-8"?>
<!-- Generator: Adobe Illustrator 25.2.0, SVG Export Plug-In . SVG Version: 6.00 Build 0)  -->
<svg version="1.1" id="Layer_1" xmlns="http://www.w3.org/2000/svg" xmlns:xlink="http://www.w3.org/1999/xlink" x="0px" y="0px"
	 viewBox="0 0 54.2 48" style="enable-background:new 0 0 54.2 48;" xml:space="preserve">
<style type="text/css">
	.st0{fill:#ABABAB;}
</style>
<path class="st0" d="M52.2,8.6c-1.8,0.8-3.6,1.4-5.6,1.6C48.6,9,50.2,7,51,4.8c-2,1.2-4,2-6.2,2.4c-2-2-4.6-3.2-7.4-3.2
	c-5.4,0-9.8,4.4-9.8,9.8c0,0.8,0,1.6,0.2,2.2c-8.2-0.4-15.4-4.2-20.2-10.2c-1,1.4-1.4,3.2-1.4,5c0,3.4,1.8,6.4,4.4,8.2
	c-1.6-0.2-3.2-0.6-4.4-1.2c0,0,0,0,0,0.2c0,4.8,3.4,8.8,7.8,9.6c-0.8,0.2-1.6,0.4-2.6,0.4c-0.6,0-1.2,0-1.8-0.2
	c1.2,4,4.8,6.8,9.2,6.8c-3.4,2.6-7.6,4.2-12.2,4.2c-0.8,0-1.6,0-2.4-0.2c4.4,2.8,9.6,4.4,15,4.4c18.2,0,28-15,28-28
	c0-0.4,0-0.8,0-1.2C49.2,12.4,50.8,10.6,52.2,8.6"/>
</svg>
